<!DOCTYPE svg PUBLIC "-//W3C//DTD SVG 1.1//EN" "http://www.w3.org/Graphics/SVG/1.1/DTD/svg11.dtd">
<!-- Uploaded to: SVG Repo, www.svgrepo.com, Transformed by: SVG Repo Mixer Tools -->
<svg fill="#000000" width="800px" height="800px" viewBox="-2.4 -2.4 28.80 28.80" id="dashboard" data-name="Flat Line" xmlns="http://www.w3.org/2000/svg" class="icon flat-line">
<g id="SVGRepo_bgCarrier" stroke-width="0"/>
<g id="SVGRepo_tracerCarrier" stroke-linecap="round" stroke-linejoin="round"/>
<g id="SVGRepo_iconCarrier">
<path id="secondary" d="M9,12H4a1,1,0,0,1-1-1V4A1,1,0,0,1,4,3H9a1,1,0,0,1,1,1v7A1,1,0,0,1,9,12Zm12,8V13a1,1,0,0,0-1-1H15a1,1,0,0,0-1,1v7a1,1,0,0,0,1,1h5A1,1,0,0,0,21,20Z" style="fill: #3b82f6; stroke-width: 2;"/>
<path id="primary" d="M21,7V4a1,1,0,0,0-1-1H15a1,1,0,0,0-1,1V7a1,1,0,0,0,1,1h5A1,1,0,0,0,21,7ZM10,20V17a1,1,0,0,0-1-1H4a1,1,0,0,0-1,1v3a1,1,0,0,0,1,1H9A1,1,0,0,0,10,20ZM9,12H4a1,1,0,0,1-1-1V4A1,1,0,0,1,4,3H9a1,1,0,0,1,1,1v7A1,1,0,0,1,9,12Zm12,8V13a1,1,0,0,0-1-1H15a1,1,0,0,0-1,1v7a1,1,0,0,0,1,1h5A1,1,0,0,0,21,20Z" style="fill: none; stroke: #1e2233; stroke-linecap: round; stroke-linejoin: round; stroke-width: 2;"/>
</g>
</svg>